<svg width="48" height="48" viewBox="0 0 48 48" fill="none" xmlns="http://www.w3.org/2000/svg">
<path opacity="0.5" d="M37.786 14C36.1893 13.9926 34.6608 13.352 33.536 12.2189C32.4111 11.0858 31.7817 9.55265 31.786 7.956C31.7799 6.3647 32.4062 4.83615 33.5271 3.70662C34.648 2.57709 36.1717 1.9391 37.763 1.933C39.3543 1.9269 40.8828 2.55319 42.0124 3.67409C43.1419 4.795 43.7799 6.3187 43.786 7.91V7.956C43.7902 9.55265 43.1609 11.0858 42.036 12.2189C40.9111 13.352 39.3826 13.9926 37.786 14ZM23.6 46C11.264 46 1.59998 39.85 1.59998 32C1.59998 24.15 11.264 18 23.6 18C35.936 18 45.6 24.15 45.6 32C45.6 39.85 35.936 46 23.6 46Z" fill="#2563EB"/>
<path opacity="0.25" d="M40.998 16.584C39.4416 15.9253 37.709 15.8083 36.0781 16.2519C34.4472 16.6954 33.0125 17.6737 32.004 19.03C37.908 20.542 42.452 23.62 44.46 27.498C44.66 27.176 44.848 26.846 44.998 26.498C45.3865 25.5844 45.5912 24.6033 45.6005 23.6105C45.6097 22.6178 45.4233 21.633 45.0518 20.7124C44.6803 19.7917 44.1312 18.9533 43.4356 18.2449C42.74 17.5366 41.9117 16.9722 40.998 16.584ZM23.6 18C24.38 18 25.152 18.026 25.912 18.074L27.624 6.66401L31.798 8.08401C31.798 8.04001 31.786 8.00001 31.786 7.95601C31.7999 6.62552 32.2598 5.33815 33.092 4.30001L26.644 2.10801C26.3668 2.01299 26.072 1.98013 25.7806 2.01176C25.4892 2.0434 25.2084 2.13875 24.958 2.29105C24.7076 2.44336 24.4937 2.64889 24.3317 2.89307C24.1696 3.13726 24.0632 3.41411 24.02 3.70401L21.868 18.054C22.442 18.026 23.014 18 23.6 18ZM15.184 19.032C15.008 18.798 14.84 18.556 14.638 18.344C13.3502 16.9954 11.6091 16.1707 9.7498 16.0288C7.89048 15.8868 6.04436 16.4376 4.56676 17.5751C3.08915 18.7126 2.08449 20.3564 1.74614 22.1902C1.40779 24.024 1.75966 25.9181 2.73402 27.508C4.73802 23.628 9.28002 20.548 15.184 19.032Z" fill="#2563EB"/>
<path d="M23.684 39C22.3247 39.1193 20.9553 38.9653 19.6566 38.5469C18.3578 38.1285 17.156 37.4543 16.122 36.564C15.747 36.1885 15.5365 35.6793 15.5369 35.1486C15.5372 34.6179 15.7484 34.109 16.124 33.734C16.4995 33.359 17.0087 33.1485 17.5394 33.1489C18.0701 33.1493 18.579 33.3605 18.954 33.736C20.314 34.736 22.004 35.188 23.684 35C25.3655 35.1864 27.0558 34.7346 28.42 33.734C28.7955 33.359 29.3047 33.1485 29.8354 33.1489C30.3661 33.1493 30.875 33.3605 31.25 33.736C31.625 34.1115 31.8355 34.6207 31.8351 35.1514C31.8347 35.6821 31.6235 36.191 31.248 36.566C30.213 37.4552 29.0106 38.1286 27.7117 38.5466C26.4127 38.9646 25.0433 39.1187 23.684 39ZM20 28.004C20 27.6084 19.8827 27.2218 19.6629 26.8929C19.4432 26.564 19.1308 26.3076 18.7653 26.1562C18.3999 26.0049 17.9978 25.9653 17.6098 26.0424C17.2218 26.1196 16.8655 26.3101 16.5858 26.5898C16.3061 26.8695 16.1156 27.2259 16.0384 27.6138C15.9612 28.0018 16.0008 28.4039 16.1522 28.7694C16.3036 29.1348 16.5599 29.4472 16.8888 29.6669C17.2177 29.8867 17.6044 30.004 18 30.004C19.104 30.002 20 29.108 20 28.004ZM32 28.004C32 27.6084 31.8827 27.2218 31.6629 26.8929C31.4432 26.564 31.1308 26.3076 30.7653 26.1562C30.3999 26.0049 29.9978 25.9653 29.6098 26.0424C29.2218 26.1196 28.8655 26.3101 28.5858 26.5898C28.3061 26.8695 28.1156 27.2259 28.0384 27.6138C27.9612 28.0018 28.0008 28.4039 28.1522 28.7694C28.3036 29.1348 28.5599 29.4472 28.8888 29.6669C29.2177 29.8867 29.6044 30.004 30 30.004C31.104 30.002 32 29.108 32 28.004Z" fill="#2563EB"/>
</svg>
